<svg width="32" height="30" viewBox="0 0 32 30" fill="none" xmlns="http://www.w3.org/2000/svg">
<path d="M31.5 26H29.5V23.5C29.5 23.3674 29.4473 23.2402 29.3536 23.1464C29.2598 23.0527 29.1326 23 29 23H28.5V11H30.5C30.6326 11 30.7598 10.9473 30.8536 10.8536C30.9473 10.7598 31 10.6326 31 10.5V8C31 7.86739 30.9473 7.74021 30.8536 7.64645C30.7598 7.55268 30.6326 7.5 30.5 7.5H30.3385L28.464 2.814C28.4269 2.72131 28.3628 2.64187 28.2801 2.58591C28.1974 2.52994 28.0999 2.50002 28 2.5H21.1115C19.883 0.9345 17.997 0 16 0C14.003 0 12.117 0.9345 10.8885 2.5H4C3.7955 2.5 3.612 2.6245 3.5355 2.814L1.6615 7.5H1.5C1.36739 7.5 1.24021 7.55268 1.14645 7.64645C1.05268 7.74021 1 7.86739 1 8V10.5C1 10.6326 1.05268 10.7598 1.14645 10.8536C1.24021 10.9473 1.36739 11 1.5 11H3.5V23H3C2.86739 23 2.74021 23.0527 2.64645 23.1464C2.55268 23.2402 2.5 23.3674 2.5 23.5V26H0.5C0.367392 26 0.240215 26.0527 0.146447 26.1464C0.0526784 26.2402 0 26.3674 0 26.5L0 29.5C0 29.6326 0.0526784 29.7598 0.146447 29.8536C0.240215 29.9473 0.367392 30 0.5 30H31.5C31.6326 30 31.7598 29.9473 31.8536 29.8536C31.9473 29.7598 32 29.6326 32 29.5V26.5C32 26.3674 31.9473 26.2402 31.8536 26.1464C31.7598 26.0527 31.6326 26 31.5 26ZM22 26V24H28.5V26H22ZM16.5 26V16H21V26H16.5ZM11 26V16H15.5V26H11ZM30 10H21.469C21.7678 9.53245 22.0049 9.02828 22.1745 8.5H30V10ZM23.6615 3.5L25.2615 7.5H22.4145C22.4655 7.171 22.5 6.838 22.5 6.5C22.5 5.4405 22.2465 4.42 21.7665 3.5H23.6615ZM29.2615 7.5H26.339L24.739 3.5H27.662L29.2615 7.5ZM16 1C16.8731 1.00139 17.7334 1.20986 18.5103 1.60829C19.2871 2.00673 19.9584 2.58376 20.469 3.292C21.1428 4.22564 21.5037 5.34863 21.5 6.5C21.5 6.969 21.4415 7.431 21.3255 7.8765C21.1084 8.72726 20.6888 9.51292 20.1025 10.1665C19.5858 10.7432 18.9533 11.2045 18.2463 11.5202C17.5392 11.836 16.7736 11.9991 15.9993 11.999C15.225 11.999 14.4593 11.8356 13.7524 11.5197C13.0455 11.2037 12.4131 10.7423 11.8965 10.1655C11.3098 9.51169 10.8903 8.7254 10.674 7.874C10.5578 7.42527 10.4993 6.96354 10.5 6.5C10.5 5.337 10.8565 4.228 11.531 3.292C12.0416 2.58376 12.7129 2.00673 13.4897 1.60829C14.2666 1.20986 15.1269 1.00139 16 1ZM10.2335 3.5C9.75004 4.42599 9.49835 5.4554 9.5 6.5C9.5 6.838 9.5345 7.171 9.5855 7.5H6.7385L8.3385 3.5H10.2335ZM4.3385 3.5H7.2615L5.6615 7.5H2.7385L4.3385 3.5ZM2 8.5H9.826C9.99546 9.02826 10.2324 9.53243 10.531 10H2V8.5ZM4.5 11H11.3185C11.9243 11.631 12.6511 12.1333 13.4555 12.477C14.2599 12.8206 15.1253 12.9985 16 13C17.7705 13 19.461 12.2695 20.682 11H27.5V23H22V15.5C22 15.3674 21.9473 15.2402 21.8536 15.1464C21.7598 15.0527 21.6326 15 21.5 15H10.5C10.3674 15 10.2402 15.0527 10.1464 15.1464C10.0527 15.2402 10 15.3674 10 15.5V23H4.5V11ZM3.5 24H10V26H3.5V24ZM31 29H1V27H31V29Z" fill="#109EC4"/>
<path d="M12.5 8.5H14V10C14 10.1326 14.0527 10.2598 14.1464 10.3536C14.2402 10.4473 14.3674 10.5 14.5 10.5H17.5C17.6326 10.5 17.7598 10.4473 17.8536 10.3536C17.9473 10.2598 18 10.1326 18 10V8.5H19.5C19.6326 8.5 19.7598 8.44732 19.8536 8.35355C19.9473 8.25979 20 8.13261 20 8V5C20 4.86739 19.9473 4.74021 19.8536 4.64645C19.7598 4.55268 19.6326 4.5 19.5 4.5H18V3C18 2.86739 17.9473 2.74021 17.8536 2.64645C17.7598 2.55268 17.6326 2.5 17.5 2.5H14.5C14.3674 2.5 14.2402 2.55268 14.1464 2.64645C14.0527 2.74021 14 2.86739 14 3V4.5H12.5C12.3674 4.5 12.2402 4.55268 12.1464 4.64645C12.0527 4.74021 12 4.86739 12 5V8C12 8.13261 12.0527 8.25979 12.1464 8.35355C12.2402 8.44732 12.3674 8.5 12.5 8.5ZM13 5.5H14.5C14.6326 5.5 14.7598 5.44732 14.8536 5.35355C14.9473 5.25979 15 5.13261 15 5V3.5H17V5C17 5.13261 17.0527 5.25979 17.1464 5.35355C17.2402 5.44732 17.3674 5.5 17.5 5.5H19V7.5H17.5C17.3674 7.5 17.2402 7.55268 17.1464 7.64645C17.0527 7.74021 17 7.86739 17 8V9.5H15V8C15 7.86739 14.9473 7.74021 14.8536 7.64645C14.7598 7.55268 14.6326 7.5 14.5 7.5H13V5.5ZM14 19.5C13.8674 19.5 13.7402 19.5527 13.6464 19.6464C13.5527 19.7402 13.5 19.8674 13.5 20V21.5C13.5 21.6326 13.5527 21.7598 13.6464 21.8536C13.7402 21.9473 13.8674 22 14 22C14.1326 22 14.2598 21.9473 14.3536 21.8536C14.4473 21.7598 14.5 21.6326 14.5 21.5V20C14.5 19.8674 14.4473 19.7402 14.3536 19.6464C14.2598 19.5527 14.1326 19.5 14 19.5ZM18 19.5C17.8674 19.5 17.7402 19.5527 17.6464 19.6464C17.5527 19.7402 17.5 19.8674 17.5 20V21.5C17.5 21.6326 17.5527 21.7598 17.6464 21.8536C17.7402 21.9473 17.8674 22 18 22C18.1326 22 18.2598 21.9473 18.3536 21.8536C18.4473 21.7598 18.5 21.6326 18.5 21.5V20C18.5 19.8674 18.4473 19.7402 18.3536 19.6464C18.2598 19.5527 18.1326 19.5 18 19.5Z" fill="#109EC4"/>
<path d="M6.5 14C6.77614 14 7 13.7761 7 13.5C7 13.2239 6.77614 13 6.5 13C6.22386 13 6 13.2239 6 13.5C6 13.7761 6.22386 14 6.5 14Z" fill="#109EC4"/>
<path d="M6.5 15C6.36739 15 6.24021 15.0527 6.14645 15.1464C6.05268 15.2402 6 15.3674 6 15.5V20.5C6 20.6326 6.05268 20.7598 6.14645 20.8536C6.24021 20.9473 6.36739 21 6.5 21C6.63261 21 6.75979 20.9473 6.85355 20.8536C6.94732 20.7598 7 20.6326 7 20.5V15.5C7 15.3674 6.94732 15.2402 6.85355 15.1464C6.75979 15.0527 6.63261 15 6.5 15Z" fill="#109EC4"/>
</svg>
