<svg width="20" height="20" viewBox="0 0 20 20" fill="none" xmlns="http://www.w3.org/2000/svg">
<rect width="20" height="20" rx="4" fill="#109EC4"/>
<path fill-rule="evenodd" clip-rule="evenodd" d="M8.39741 14.5C8.19041 14.5 7.99241 14.4145 7.85066 14.2637L4.20341 10.3795C3.91916 10.078 3.93491 9.60324 4.23641 9.31974C4.53866 9.03624 5.01341 9.05124 5.29616 9.35274L8.38991 12.646L14.6959 5.74449C14.9764 5.43774 15.4504 5.41749 15.7564 5.69649C16.0617 5.97549 16.0827 6.45024 15.8037 6.75549L8.95091 14.2555C8.81066 14.41 8.61116 14.4985 8.40266 14.5H8.39741Z" fill="#231F20"/>
<mask id="mask0_3_4256" style="mask-type:luminance" maskUnits="userSpaceOnUse" x="3" y="5" width="13" height="10">
<path fill-rule="evenodd" clip-rule="evenodd" d="M8.39741 14.5C8.19041 14.5 7.99241 14.4145 7.85066 14.2637L4.20341 10.3795C3.91916 10.078 3.93491 9.60324 4.23641 9.31974C4.53866 9.03624 5.01341 9.05124 5.29616 9.35274L8.38991 12.646L14.6959 5.74449C14.9764 5.43774 15.4504 5.41749 15.7564 5.69649C16.0617 5.97549 16.0827 6.45024 15.8037 6.75549L8.95091 14.2555C8.81066 14.41 8.61116 14.4985 8.40266 14.5H8.39741Z" fill="white"/>
</mask>
<g mask="url(#mask0_3_4256)">
<rect x="1" y="1" width="18" height="18" fill="white"/>
</g>
</svg>
