<svg width="30" height="29" viewBox="0 0 30 29" fill="none" xmlns="http://www.w3.org/2000/svg">
<path d="M28.4989 25.063C28.4996 25.0418 28.5 25.0208 28.5 25C28.4994 24.4697 28.2885 23.9614 27.9136 23.5864C27.5386 23.2115 27.0302 23.0006 26.5 23V13.75L28.3 12.4C28.3625 12.3531 28.4132 12.2922 28.4479 12.2222C28.4826 12.1522 28.5005 12.075 28.5 11.9969C28.4995 11.9188 28.4807 11.8418 28.4451 11.7722C28.4095 11.7027 28.3581 11.6424 28.295 11.5963L24 8.45763V3C24.1326 3 24.2598 2.94732 24.3536 2.85355C24.4473 2.75979 24.5 2.63261 24.5 2.5V0.5C24.5 0.367392 24.4473 0.240215 24.3536 0.146447C24.2598 0.0526784 24.1326 0 24 0H19C18.8674 0 18.7402 0.0526784 18.6464 0.146447C18.5527 0.240215 18.5 0.367392 18.5 0.5V2.5C18.5 2.63261 18.5527 2.75979 18.6464 2.85355C18.7402 2.94732 18.8674 3 19 3V4.80381L15.295 2.09631C15.2094 2.03374 15.1061 2.00001 15 2.00001C14.8939 2.00001 14.7906 2.03374 14.705 2.09631L1.705 11.5963C1.6419 11.6424 1.5905 11.7027 1.5549 11.7722C1.5193 11.8418 1.5005 11.9188 1.50002 11.9969C1.49953 12.075 1.51737 12.1522 1.5521 12.2222C1.58683 12.2922 1.63748 12.3531 1.7 12.4L3.5 13.75V23C2.96975 23.0006 2.46139 23.2115 2.08644 23.5864C1.7115 23.9614 1.50059 24.4697 1.5 25C1.5 25.0208 1.50037 25.0418 1.50112 25.063C1.02943 25.1843 0.6182 25.4735 0.344589 25.8764C0.0709778 26.2793 -0.0462087 26.7682 0.0150161 27.2514C0.076241 27.7346 0.311669 28.1788 0.677129 28.5008C1.04259 28.8227 1.51296 29.0002 2 29H28C28.487 29.0002 28.9574 28.8227 29.3229 28.5008C29.6883 28.1788 29.9238 27.7346 29.985 27.2514C30.0462 26.7682 29.929 26.2793 29.6554 25.8764C29.3818 25.4735 28.9706 25.1843 28.4989 25.063ZM19.5 1H23.5V2H19.5V1ZM20 5.5V3H23V7.72688L19.9527 5.5H20ZM15 3.11925L27.1597 12.0052L25.9954 12.8784L15.2941 5.09562C15.2087 5.03345 15.1057 4.99996 15 4.99996C14.8943 4.99996 14.7913 5.03345 14.7059 5.09562L4.00456 12.8784L2.84031 12.0052L15 3.11925ZM0.999999 27C1.00028 26.7375 1.10367 26.4855 1.28791 26.2985C1.47215 26.1114 1.72249 26.0042 1.985 26H1.98619C2.01175 26.0036 2.03731 26.0066 2.06337 26.0083C2.14623 26.0135 2.22909 25.9981 2.30446 25.9633C2.37984 25.9285 2.44536 25.8754 2.49512 25.809C2.54488 25.7425 2.5773 25.6647 2.58947 25.5826C2.60164 25.5005 2.59316 25.4166 2.56481 25.3386C2.52343 25.2304 2.50149 25.1158 2.5 25C2.50031 24.7349 2.60577 24.4807 2.79324 24.2932C2.98071 24.1058 3.23488 24.0003 3.5 24V28H2C1.73488 27.9997 1.48071 27.8942 1.29324 27.7068C1.10577 27.5193 1.00031 27.2651 0.999999 27ZM22.5 28H16.5V17H22.5V28ZM23.5 28V16.5C23.5 16.3674 23.4473 16.2402 23.3536 16.1464C23.2598 16.0527 23.1326 16 23 16H16C15.8674 16 15.7402 16.0527 15.6464 16.1464C15.5527 16.2402 15.5 16.3674 15.5 16.5V28H4.5V13.7546L15 6.11825L25.5 13.7546V28H23.5ZM28 28H26.5V24C26.7651 24.0003 27.0193 24.1058 27.2068 24.2932C27.3942 24.4807 27.4997 24.7349 27.5 25C27.4985 25.1159 27.4766 25.2306 27.4352 25.3388C27.4068 25.4168 27.3984 25.5007 27.4105 25.5828C27.4227 25.665 27.4551 25.7428 27.5049 25.8092C27.5546 25.8757 27.6202 25.9287 27.6955 25.9635C27.7709 25.9983 27.8538 26.0138 27.9366 26.0086C27.9627 26.0069 27.9882 26.0038 28.0138 26.0002H28.015C28.2802 26.0022 28.5338 26.1095 28.7199 26.2984C28.906 26.4874 29.0095 26.7425 29.0075 27.0077C29.0055 27.273 28.8982 27.5265 28.7093 27.7127C28.5204 27.8988 28.2652 28.0022 28 28.0002V28Z" fill="#109EC4"/>
<path d="M13 16H7C6.86739 16 6.74021 16.0527 6.64645 16.1464C6.55268 16.2402 6.5 16.3674 6.5 16.5V23.5C6.5 23.6326 6.55268 23.7598 6.64645 23.8536C6.74021 23.9473 6.86739 24 7 24H13C13.1326 24 13.2598 23.9473 13.3536 23.8536C13.4473 23.7598 13.5 23.6326 13.5 23.5V16.5C13.5 16.3674 13.4473 16.2402 13.3536 16.1464C13.2598 16.0527 13.1326 16 13 16ZM12.5 19.5H10.5V17H12.5V19.5ZM9.5 17V19.5H7.5V17H9.5ZM7.5 20.5H9.5V23H7.5V20.5ZM10.5 23V20.5H12.5V23H10.5Z" fill="#109EC4"/>
<path d="M18.4619 22.1913C18.5676 21.9362 18.4464 21.6437 18.1913 21.5381C17.9362 21.4324 17.6437 21.5535 17.538 21.8087C17.4323 22.0638 17.5535 22.3563 17.8086 22.4619C18.0637 22.5676 18.3562 22.4465 18.4619 22.1913Z" fill="#109EC4"/>
</svg>
