<svg width="28" height="28" viewBox="0 0 28 28" fill="none" xmlns="http://www.w3.org/2000/svg">
<path d="M14.1672 0.5C14.8647 0.500131 15.538 0.751024 16.0602 1.20542L27.6667 11.3108V24.6951C27.6659 25.4388 27.3649 26.1517 26.8299 26.6775C26.295 27.2033 25.5698 27.4992 24.8133 27.5H16.2813V18.7652C16.2811 18.5841 16.2077 18.4105 16.0774 18.2824C15.9471 18.1544 15.7705 18.0823 15.5863 18.082H12.747C12.5628 18.0823 12.3862 18.1544 12.2559 18.2824C12.1256 18.4105 12.0523 18.5841 12.052 18.7652V27.5H3.52011C2.76362 27.4992 2.03829 27.2033 1.50337 26.6775C0.96845 26.1517 0.667574 25.4388 0.666718 24.6951V11.3108L12.2722 1.20652C12.7948 0.751255 13.469 0.499905 14.1672 0.5ZM25.5084 12.2655L14.6302 2.79458C14.5026 2.68318 14.3379 2.62164 14.1672 2.62164C13.9966 2.62164 13.8318 2.68318 13.7042 2.79458L2.82613 12.2655V24.6951C2.82641 24.8762 2.89978 25.0498 3.03005 25.1779C3.16033 25.306 3.33693 25.3781 3.52116 25.3784H9.8948V18.7652C9.89565 18.0216 10.1965 17.3087 10.7314 16.7828C11.2664 16.257 11.9916 15.9612 12.7481 15.9604H15.5874C16.3438 15.9612 17.0692 16.257 17.6041 16.7828C18.139 17.3087 18.4399 18.0216 18.4407 18.7652V25.3784H24.8144C24.9986 25.3781 25.1752 25.306 25.3055 25.1779C25.4358 25.0498 25.5091 24.8762 25.5094 24.6951L25.5084 12.2655Z" fill="#109EC4"/>
</svg>
