<svg width="49" height="48" viewBox="0 0 49 48" fill="none" xmlns="http://www.w3.org/2000/svg">
<path fill-rule="evenodd" clip-rule="evenodd" d="M16 17.3398C15.337 17.3398 14.7011 17.6032 14.2322 18.0721C13.7634 18.5409 13.5 19.1768 13.5 19.8398C13.5 20.5029 13.7634 21.1388 14.2322 21.6076C14.7011 22.0765 15.337 22.3398 16 22.3398C16.663 22.3398 17.2989 22.0765 17.7678 21.6076C18.2366 21.1388 18.5 20.5029 18.5 19.8398C18.5 19.1768 18.2366 18.5409 17.7678 18.0721C17.2989 17.6032 16.663 17.3398 16 17.3398ZM10.5 19.8398C10.5 18.3812 11.0795 16.9822 12.1109 15.9508C13.1424 14.9193 14.5413 14.3398 16 14.3398C17.4587 14.3398 18.8576 14.9193 19.8891 15.9508C20.9205 16.9822 21.5 18.3812 21.5 19.8398C21.5 21.2985 20.9205 22.6975 19.8891 23.7289C18.8576 24.7604 17.4587 25.3398 16 25.3398C14.5413 25.3398 13.1424 24.7604 12.1109 23.7289C11.0795 22.6975 10.5 21.2985 10.5 19.8398ZM22.292 33.0498C19.792 35.8498 17.184 39.6758 14.428 44.5758C14.2317 44.9204 13.907 45.1732 13.5248 45.279C13.1427 45.3848 12.7342 45.335 12.3886 45.1404C12.0431 44.9458 11.7887 44.6224 11.681 44.2407C11.5733 43.8591 11.6211 43.4503 11.814 43.1038C14.628 38.1038 17.356 34.0718 20.054 31.0518C22.744 28.0378 25.478 25.9478 28.318 24.9658C31.214 23.9618 34.104 24.1498 36.956 25.4778C39.756 26.7838 42.47 29.1658 45.164 32.4718C45.4154 32.7803 45.534 33.176 45.4937 33.5719C45.4534 33.9678 45.2574 34.3314 44.949 34.5828C44.6406 34.8343 44.2449 34.9529 43.849 34.9125C43.4531 34.8722 43.0894 34.6763 42.838 34.3678C40.294 31.2438 37.918 29.2378 35.688 28.1978C33.508 27.1818 31.422 27.0658 29.3 27.7978C27.124 28.5538 24.798 30.2438 22.292 33.0498Z" fill="#D9D9D9"/>
<path fill-rule="evenodd" clip-rule="evenodd" d="M5.282 9.12184C6.16425 8.23972 7.21162 7.54001 8.3643 7.06267C9.51698 6.58533 10.7524 6.33972 12 6.33984H26.56C26.9578 6.33984 27.3394 6.49788 27.6207 6.77918C27.902 7.06049 28.06 7.44202 28.06 7.83984C28.06 8.23767 27.902 8.6192 27.6207 8.9005C27.3394 9.18181 26.9578 9.33984 26.56 9.33984H12C10.2761 9.33984 8.62279 10.0247 7.40381 11.2436C6.18482 12.4626 5.5 14.1159 5.5 15.8398V35.8398C5.5 37.5638 6.18482 39.2171 7.40381 40.436C8.62279 41.655 10.2761 42.3398 12 42.3398H36C37.7239 42.3398 39.3772 41.655 40.5962 40.436C41.8152 39.2171 42.5 37.5638 42.5 35.8398V25.8398C42.5 25.442 42.658 25.0605 42.9393 24.7792C43.2206 24.4979 43.6022 24.3398 44 24.3398C44.3978 24.3398 44.7794 24.4979 45.0607 24.7792C45.342 25.0605 45.5 25.442 45.5 25.8398V35.8398C45.5 38.3594 44.4991 40.7758 42.7175 42.5574C40.9359 44.339 38.5196 45.3398 36 45.3398H12C9.48044 45.3398 7.06408 44.339 5.28249 42.5574C3.50089 40.7758 2.5 38.3594 2.5 35.8398V15.8398C2.5 13.3198 3.5 10.9038 5.282 9.12184Z" fill="#D9D9D9"/>
<path fill-rule="evenodd" clip-rule="evenodd" d="M39.5 1.99985C39.8978 1.99985 40.2794 2.15788 40.5607 2.43919C40.842 2.72049 41 3.10202 41 3.49985V19.4998C41 19.8977 40.842 20.2792 40.5607 20.5605C40.2794 20.8418 39.8978 20.9998 39.5 20.9998C39.1022 20.9998 38.7206 20.8418 38.4393 20.5605C38.158 20.2792 38 19.8977 38 19.4998V3.49985C38 3.10202 38.158 2.72049 38.4393 2.43919C38.7206 2.15788 39.1022 1.99985 39.5 1.99985Z" fill="#D9D9D9"/>
<path fill-rule="evenodd" clip-rule="evenodd" d="M38.4401 2.43983C38.5794 2.30044 38.7448 2.18987 38.9269 2.11443C39.1089 2.03898 39.304 2.00015 39.5011 2.00015C39.6982 2.00015 39.8933 2.03898 40.0754 2.11443C40.2574 2.18987 40.4228 2.30044 40.5621 2.43983L46.9621 8.83983C47.2271 9.12418 47.3713 9.50028 47.3645 9.88888C47.3576 10.2775 47.2002 10.6483 46.9254 10.9231C46.6505 11.1979 46.2798 11.3553 45.8912 11.3622C45.5026 11.369 45.1265 11.2248 44.8421 10.9598L39.5021 5.61983L34.1621 10.9598C34.0248 11.1072 33.8592 11.2254 33.6752 11.3074C33.4912 11.3894 33.2926 11.4335 33.0912 11.437C32.8898 11.4406 32.6897 11.4035 32.5029 11.3281C32.3161 11.2526 32.1465 11.1403 32.004 10.9979C31.8616 10.8555 31.7493 10.6858 31.6739 10.499C31.5984 10.3123 31.5614 10.1122 31.5649 9.91079C31.5685 9.70938 31.6126 9.51076 31.6946 9.32676C31.7765 9.14276 31.8947 8.97716 32.0421 8.83983L38.4401 2.43983Z" fill="#D9D9D9"/>
</svg>
