<svg width="28" height="28" viewBox="0 0 28 28" fill="none" xmlns="http://www.w3.org/2000/svg">
<path fill-rule="evenodd" clip-rule="evenodd" d="M16.0833 8.375C16.0833 7.13412 15.0742 6.125 13.8334 6.125C12.5926 6.125 11.5835 7.13412 11.5835 8.375C11.5835 9.61588 12.5926 10.625 13.8334 10.625C15.0742 10.625 16.0833 9.61588 16.0833 8.375ZM18.3332 8.375C18.3332 10.8568 16.315 12.875 13.8334 12.875C11.3517 12.875 9.33355 10.8568 9.33355 8.375C9.33355 5.89325 11.3517 3.875 13.8334 3.875C16.315 3.875 18.3332 5.89325 18.3332 8.375ZM5.95868 23C5.95868 18.6575 9.49217 15.125 13.8334 15.125C18.1746 15.125 21.7081 18.6575 21.7081 23C21.7081 23.621 21.2052 24.125 20.5831 24.125C19.961 24.125 19.4582 23.621 19.4582 23C19.4582 19.8984 16.9349 17.375 13.8334 17.375C10.7319 17.375 8.2086 19.8984 8.2086 23C8.2086 23.621 7.70574 24.125 7.08364 24.125C6.46154 24.125 5.95868 23.621 5.95868 23Z" fill="#231F20"/>
<mask id="mask0_599_2515" style="mask-type:luminance" maskUnits="userSpaceOnUse" x="5" y="3" width="17" height="22">
<path fill-rule="evenodd" clip-rule="evenodd" d="M16.0833 8.375C16.0833 7.13412 15.0742 6.125 13.8334 6.125C12.5926 6.125 11.5835 7.13412 11.5835 8.375C11.5835 9.61588 12.5926 10.625 13.8334 10.625C15.0742 10.625 16.0833 9.61588 16.0833 8.375ZM18.3332 8.375C18.3332 10.8568 16.315 12.875 13.8334 12.875C11.3517 12.875 9.33355 10.8568 9.33355 8.375C9.33355 5.89325 11.3517 3.875 13.8334 3.875C16.315 3.875 18.3332 5.89325 18.3332 8.375ZM5.95868 23C5.95868 18.6575 9.49217 15.125 13.8334 15.125C18.1746 15.125 21.7081 18.6575 21.7081 23C21.7081 23.621 21.2052 24.125 20.5831 24.125C19.961 24.125 19.4582 23.621 19.4582 23C19.4582 19.8984 16.9349 17.375 13.8334 17.375C10.7319 17.375 8.2086 19.8984 8.2086 23C8.2086 23.621 7.70574 24.125 7.08364 24.125C6.46154 24.125 5.95868 23.621 5.95868 23Z" fill="white"/>
</mask>
<g mask="url(#mask0_599_2515)">
<rect x="0.333862" y="0.5" width="26.999" height="27" fill="#D3D3D3"/>
</g>
</svg>
