<svg width="49" height="48" viewBox="0 0 49 48" fill="none" xmlns="http://www.w3.org/2000/svg">
<rect x="0.5" width="48" height="48" rx="8" fill="#F14C4E" fill-opacity="0.15"/>
<mask id="mask0_491_1711" style="mask-type:luminance" maskUnits="userSpaceOnUse" x="12" y="12" width="25" height="24">
<path fill-rule="evenodd" clip-rule="evenodd" d="M28.1093 25.724C28.6307 26.2453 28.6307 27.088 28.1093 27.6093C27.8493 27.8693 27.508 28 27.1667 28C26.8253 28 26.484 27.8693 26.224 27.6093L24.5 25.8853L22.776 27.6093C22.516 27.8693 22.1747 28 21.8333 28C21.492 28 21.1507 27.8693 20.8907 27.6093C20.3693 27.088 20.3693 26.2453 20.8907 25.724L22.6147 24L20.8907 22.276C20.3693 21.7547 20.3693 20.912 20.8907 20.3907C21.412 19.8693 22.2547 19.8693 22.776 20.3907L24.5 22.1147L26.224 20.3907C26.7453 19.8693 27.588 19.8693 28.1093 20.3907C28.6307 20.912 28.6307 21.7547 28.1093 22.276L26.3853 24L28.1093 25.724ZM32.5 12H16.5C14.2947 12 12.5 13.7947 12.5 16V32C12.5 34.2053 14.2947 36 16.5 36H32.5C34.7053 36 36.5 34.2053 36.5 32V16C36.5 13.7947 34.7053 12 32.5 12Z" fill="white"/>
</mask>
<g mask="url(#mask0_491_1711)">
<rect x="8.5" y="8" width="32" height="32" fill="#F14C4E"/>
</g>
</svg>
