<svg width="27" height="28" viewBox="0 0 27 28" fill="none" xmlns="http://www.w3.org/2000/svg">
<g clip-path="url(#clip0_599_2530)">
<path d="M23.76 3.61548H3.24002C2.04708 3.61548 1.08002 4.54535 1.08002 5.6924V24.3847C1.08002 25.5318 2.04708 26.4616 3.24002 26.4616H23.76C24.953 26.4616 25.92 25.5318 25.92 24.3847V5.6924C25.92 4.54535 24.953 3.61548 23.76 3.61548Z" stroke="#CCCCCC" stroke-width="2"/>
<path d="M10.8 1.53846C10.8 0.964935 10.3165 0.5 9.72001 0.5C9.12355 0.5 8.64001 0.964935 8.64001 1.53846V5.69231C8.64001 6.26583 9.12355 6.73077 9.72001 6.73077C10.3165 6.73077 10.8 6.26583 10.8 5.69231V1.53846Z" fill="#CCCCCC"/>
<path d="M18.36 1.53846C18.36 0.964935 17.8765 0.5 17.28 0.5C16.6835 0.5 16.2 0.964935 16.2 1.53846V5.69231C16.2 6.26583 16.6835 6.73077 17.28 6.73077C17.8765 6.73077 18.36 6.26583 18.36 5.69231V1.53846Z" fill="#CCCCCC"/>
<path d="M1.21503 9.35596H25.4069" stroke="#CCCCCC" stroke-width="2"/>
<path d="M7.56002 12.9614H5.40002V15.0383H7.56002V12.9614Z" fill="#CCCCCC"/>
<path d="M11.88 12.9614H9.71997V15.0383H11.88V12.9614Z" fill="#CCCCCC"/>
<path d="M16.2 12.9614H14.04V15.0383H16.2V12.9614Z" fill="#CCCCCC"/>
<path d="M20.52 12.9614H18.36V15.0383H20.52V12.9614Z" fill="#CCCCCC"/>
<path d="M7.56002 16.0769H5.40002V18.1538H7.56002V16.0769Z" fill="#CCCCCC"/>
<path d="M11.88 16.0769H9.71997V18.1538H11.88V16.0769Z" fill="#CCCCCC"/>
<path d="M16.2 16.0769H14.04V18.1538H16.2V16.0769Z" fill="#CCCCCC"/>
<path d="M20.52 16.0769H18.36V18.1538H20.52V16.0769Z" fill="#CCCCCC"/>
</g>
<defs>
<clipPath id="clip0_599_2530">
<rect width="27" height="27" fill="white" transform="translate(0 0.5)"/>
</clipPath>
</defs>
</svg>
