<svg width="343" height="48" viewBox="0 0 343 48" fill="none" xmlns="http://www.w3.org/2000/svg">
<rect x="0.5" y="0.5" width="342" height="47" rx="7.5" stroke="#B3B2B2" stroke-dasharray="8 8"/>
<path d="M107.116 22.208V28.256C107.116 28.448 107.169 28.5973 107.276 28.704C107.372 28.8107 107.479 28.864 107.596 28.864H107.916V30H107.244C106.753 30 106.364 29.8133 106.076 29.44C105.383 29.9307 104.636 30.176 103.836 30.176C102.716 30.176 101.831 29.7387 101.18 28.864C100.647 28.1493 100.38 27.296 100.38 26.304C100.38 25.1413 100.764 24.176 101.532 23.408C102.215 22.7147 103.052 22.368 104.044 22.368C104.609 22.368 105.18 22.496 105.756 22.752L106.444 22.208H107.116ZM105.756 23.872C105.287 23.6373 104.812 23.52 104.332 23.52C103.521 23.52 102.865 23.84 102.364 24.48C101.948 25.0027 101.74 25.6213 101.74 26.336C101.74 27.1893 101.943 27.8613 102.348 28.352C102.743 28.8 103.276 29.024 103.948 29.024C104.524 29.024 105.127 28.8693 105.756 28.56V23.872ZM112.051 18.544V28.48C112.051 28.608 112.035 28.736 112.003 28.864H112.851V30H112.291L111.763 29.44H111.715C111.427 29.8133 111.054 30 110.595 30H107.811V28.864H110.083C110.286 28.864 110.446 28.784 110.563 28.624C110.648 28.5173 110.691 28.3947 110.691 28.256V18.544H112.051ZM116.973 22.64V28.48C116.973 28.608 116.957 28.736 116.925 28.864H117.773V30H117.149L116.685 29.44H116.637C116.349 29.8133 115.976 30 115.517 30H112.733V28.864H115.005C115.176 28.864 115.314 28.8107 115.421 28.704C115.549 28.5867 115.613 28.4373 115.613 28.256V22.64H116.973ZM114.237 31.664C114.45 31.664 114.632 31.7387 114.781 31.888C114.941 32.048 115.021 32.2347 115.021 32.448C115.021 32.672 114.941 32.8587 114.781 33.008C114.632 33.168 114.45 33.248 114.237 33.248C114.024 33.248 113.837 33.168 113.677 33.008C113.528 32.8587 113.453 32.672 113.453 32.448C113.453 32.2347 113.528 32.048 113.677 31.888C113.837 31.7387 114.024 31.664 114.237 31.664ZM116.173 31.664C116.397 31.664 116.584 31.7387 116.733 31.888C116.893 32.048 116.973 32.2347 116.973 32.448C116.973 32.672 116.893 32.8587 116.733 33.008C116.584 33.168 116.397 33.248 116.173 33.248C115.96 33.248 115.773 33.168 115.613 33.008C115.464 32.8587 115.389 32.672 115.389 32.448C115.389 32.2347 115.464 32.048 115.613 31.888C115.773 31.7387 115.96 31.664 116.173 31.664ZM120.807 28.864C120.369 28.1493 120.151 27.3333 120.151 26.416C120.151 25.1253 120.513 24.128 121.239 23.424C121.889 22.8053 122.748 22.4853 123.815 22.464C124.583 22.464 125.217 22.6293 125.719 22.96C126.487 23.472 126.871 24.272 126.871 25.36V28.256C126.871 28.4053 126.908 28.5333 126.983 28.64C127.079 28.7787 127.207 28.8533 127.367 28.864H127.399V30H126.999C126.519 30 126.135 29.8133 125.847 29.44C125.271 30.1333 124.54 30.48 123.655 30.48C122.727 30.48 121.921 30.1333 121.239 29.44H121.207L120.759 30H117.655V28.864H120.807ZM125.511 25.36C125.511 24.8053 125.335 24.3627 124.983 24.032C124.673 23.744 124.273 23.6 123.783 23.6C123.1 23.6 122.551 23.856 122.135 24.368C121.719 24.8693 121.511 25.5307 121.511 26.352C121.511 27.216 121.729 27.936 122.167 28.512C122.583 29.0667 123.105 29.344 123.735 29.344C124.353 29.344 124.945 29.0613 125.511 28.496V25.36ZM129.392 22.912C130.373 22.6027 131.291 22.448 132.144 22.448C133.467 22.448 134.475 22.8587 135.168 23.68C135.765 24.384 136.064 25.3067 136.064 26.448V28.48C136.064 28.608 136.048 28.736 136.016 28.864H136.576V30H136.24L135.792 29.44H135.744C135.445 29.8133 135.072 30 134.624 30H127.264V28.864H134.096C134.501 28.864 134.704 28.6613 134.704 28.256V26.4C134.704 25.568 134.485 24.912 134.048 24.432C133.568 23.8987 132.869 23.632 131.952 23.632C131.397 23.632 130.544 23.7493 129.392 23.984V22.912ZM138.115 19.12C138.339 19.12 138.526 19.2 138.675 19.36C138.825 19.5093 138.899 19.6907 138.899 19.904C138.899 20.128 138.825 20.32 138.675 20.48C138.526 20.6293 138.339 20.704 138.115 20.704C137.902 20.704 137.715 20.6293 137.555 20.48C137.406 20.32 137.331 20.128 137.331 19.904C137.331 19.6907 137.406 19.5093 137.555 19.36C137.715 19.2 137.902 19.12 138.115 19.12ZM140.067 19.12C140.281 19.12 140.462 19.2 140.611 19.36C140.771 19.5093 140.851 19.6907 140.851 19.904C140.851 20.128 140.771 20.32 140.611 20.48C140.462 20.6293 140.281 20.704 140.067 20.704C139.843 20.704 139.651 20.6293 139.491 20.48C139.342 20.32 139.267 20.128 139.267 19.904C139.267 19.6907 139.342 19.5093 139.491 19.36C139.651 19.2 139.843 19.12 140.067 19.12ZM140.707 22.64V28.48C140.707 28.608 140.691 28.736 140.659 28.864H141.507V30H140.883L140.419 29.44H140.371C140.083 29.8133 139.71 30 139.251 30H136.467V28.864H138.739C138.91 28.864 139.049 28.8107 139.155 28.704C139.283 28.5867 139.347 28.4373 139.347 28.256V22.64H140.707ZM145.629 18.544V28.48C145.629 28.896 145.49 29.248 145.213 29.536C144.925 29.8453 144.578 30 144.173 30H141.389V28.864H143.661C143.864 28.864 144.018 28.7947 144.125 28.656C144.221 28.5387 144.269 28.4053 144.269 28.256V18.544H145.629ZM161.256 19.12C161.48 19.12 161.667 19.2 161.816 19.36C161.976 19.5093 162.056 19.6907 162.056 19.904C162.056 20.128 161.976 20.32 161.816 20.48C161.667 20.6293 161.48 20.704 161.256 20.704C161.043 20.704 160.856 20.6293 160.696 20.48C160.547 20.32 160.472 20.128 160.472 19.904C160.472 19.6907 160.547 19.5093 160.696 19.36C160.856 19.2 161.043 19.12 161.256 19.12ZM158.824 28.864C158.152 28.1387 157.816 27.232 157.816 26.144C157.816 25.1093 158.099 24.2613 158.664 23.6C159.315 22.832 160.179 22.448 161.256 22.448C162.216 22.448 163.016 22.7627 163.656 23.392C164.36 24.0853 164.712 25.0027 164.712 26.144C164.712 27.2107 164.376 28.1173 163.704 28.864H165.096V30H162.808H162.616C161.987 30 161.544 29.9573 161.288 29.872H161.24C160.984 29.9573 160.536 30 159.896 30H159.704H153.288C152.648 30 152.093 29.7813 151.624 29.344C151.059 28.8213 150.776 28.16 150.776 27.36V24.352L151.464 23.792H152.136V27.36C152.136 27.7653 152.275 28.112 152.552 28.4C152.851 28.7093 153.224 28.864 153.672 28.864H158.824ZM163.352 26.16C163.352 25.3707 163.16 24.7467 162.776 24.288C162.403 23.8293 161.896 23.6 161.256 23.6C160.584 23.6 160.067 23.84 159.704 24.32C159.363 24.768 159.192 25.392 159.192 26.192C159.192 26.9387 159.389 27.5627 159.784 28.064C160.179 28.5653 160.669 28.832 161.256 28.864C161.949 28.832 162.493 28.4907 162.888 27.84C163.197 27.3387 163.352 26.7787 163.352 26.16ZM169.223 18.544V28.48C169.223 28.608 169.207 28.736 169.175 28.864H170.023V30H169.463L168.935 29.44H168.887C168.599 29.8133 168.226 30 167.767 30H164.983V28.864H167.255C167.458 28.864 167.618 28.784 167.735 28.624C167.82 28.5173 167.863 28.3947 167.863 28.256V18.544H169.223ZM172.785 25.36C172.785 24.272 173.169 23.472 173.937 22.96C174.438 22.6293 175.105 22.464 175.937 22.464C176.95 22.464 177.798 22.8107 178.481 23.504C179.163 24.1973 179.505 25.168 179.505 26.416C179.505 27.5787 179.163 28.56 178.481 29.36C177.841 30.1067 177.03 30.48 176.049 30.48C175.131 30.48 174.385 30.1333 173.809 29.44C173.521 29.8133 173.137 30 172.657 30H169.905V28.864H172.177C172.347 28.864 172.491 28.8053 172.609 28.688C172.726 28.5707 172.785 28.4267 172.785 28.256V25.36ZM174.145 28.496C174.699 29.0613 175.313 29.344 175.985 29.344C176.625 29.344 177.142 29.0827 177.537 28.56C177.942 28.0267 178.145 27.3387 178.145 26.496C178.145 25.5573 177.91 24.816 177.441 24.272C177.046 23.824 176.523 23.6 175.873 23.6C175.382 23.6 174.982 23.744 174.673 24.032C174.321 24.3627 174.145 24.8053 174.145 25.36V28.496ZM188.5 22.64V28.864H189.316V30H188.5C188.468 31.3333 187.993 32.3307 187.076 32.992C186.34 33.536 185.385 33.808 184.212 33.808C184.03 33.808 183.801 33.8027 183.524 33.792L182.995 33.136V32.624C183.305 32.6667 183.641 32.688 184.004 32.688C186.094 32.688 187.14 31.728 187.14 29.808V22.64H188.5ZM190.85 19.12C191.074 19.12 191.26 19.2 191.41 19.36C191.559 19.5093 191.634 19.6907 191.634 19.904C191.634 20.128 191.559 20.32 191.41 20.48C191.26 20.6293 191.074 20.704 190.85 20.704C190.636 20.704 190.45 20.6293 190.29 20.48C190.14 20.32 190.066 20.128 190.066 19.904C190.066 19.6907 190.14 19.5093 190.29 19.36C190.45 19.2 190.636 19.12 190.85 19.12ZM192.802 19.12C193.015 19.12 193.196 19.2 193.346 19.36C193.506 19.5093 193.586 19.6907 193.586 19.904C193.586 20.128 193.506 20.32 193.346 20.48C193.196 20.6293 193.015 20.704 192.802 20.704C192.578 20.704 192.386 20.6293 192.226 20.48C192.076 20.32 192.002 20.128 192.002 19.904C192.002 19.6907 192.076 19.5093 192.226 19.36C192.386 19.2 192.578 19.12 192.802 19.12ZM193.442 22.64V28.48C193.442 28.608 193.426 28.736 193.394 28.864H194.242V30H193.618L193.154 29.44H193.106C192.818 29.8133 192.444 30 191.986 30H189.202V28.864H191.474C191.644 28.864 191.783 28.8107 191.89 28.704C192.018 28.5867 192.082 28.4373 192.082 28.256V22.64H193.442ZM199.18 19.12C199.404 19.12 199.59 19.2 199.74 19.36C199.889 19.5093 199.964 19.6907 199.964 19.904C199.964 20.128 199.889 20.32 199.74 20.48C199.59 20.6293 199.404 20.704 199.18 20.704C198.966 20.704 198.78 20.6293 198.62 20.48C198.47 20.32 198.396 20.128 198.396 19.904C198.396 19.6907 198.47 19.5093 198.62 19.36C198.78 19.2 198.966 19.12 199.18 19.12ZM196.252 22.912C197.233 22.6027 198.15 22.448 199.004 22.448C200.326 22.448 201.334 22.8587 202.028 23.68C202.625 24.384 202.924 25.3067 202.924 26.448V28.48C202.924 28.8427 202.812 29.1627 202.588 29.44C202.31 29.8133 201.942 30 201.484 30H194.123V28.864H200.956C201.361 28.864 201.564 28.6613 201.564 28.256V26.4C201.564 25.568 201.345 24.912 200.908 24.432C200.428 23.8987 199.729 23.632 198.812 23.632C198.257 23.632 197.404 23.7493 196.252 23.984V22.912ZM206.277 18.544V29.84L205.589 30.4H204.917V18.544H206.277Z" fill="#B3B2B2"/>
<g clip-path="url(#clip0_3_4258)">
<path d="M235.857 22.3894V17.8475C235.857 17.7175 235.797 17.5973 235.712 17.5023L230.62 12.1551C230.525 12.0551 230.39 12 230.255 12H222.181C220.691 12 219.5 13.2155 219.5 14.7061V29.9725C219.5 31.4631 220.691 32.6587 222.181 32.6587H228.554C229.759 34.6594 231.95 36 234.446 36C238.238 36 241.334 32.9187 241.334 29.1221C241.339 25.8057 238.958 23.0346 235.857 22.3894V22.3894ZM230.755 13.7558L234.171 17.3522H231.955C231.295 17.3522 230.755 16.8071 230.755 16.1468L230.755 13.7558ZM222.181 31.6582C221.246 31.6582 220.501 30.9078 220.501 29.9725V14.7061C220.501 13.7657 221.246 13.0005 222.181 13.0005H229.755V16.1467C229.755 17.3622 230.74 18.3527 231.955 18.3527H234.857V22.2592C234.707 22.2543 234.586 22.2392 234.456 22.2392C232.711 22.2392 231.105 22.9096 229.895 23.96H223.542C223.267 23.96 223.042 24.1851 223.042 24.4601C223.042 24.7354 223.267 24.9603 223.542 24.9603H228.964C228.609 25.4606 228.314 25.9608 228.084 26.5111H223.542C223.267 26.5111 223.042 26.7361 223.042 27.0113C223.042 27.2863 223.267 27.5116 223.542 27.5116H227.759C227.634 28.0118 227.569 28.567 227.569 29.1222C227.569 30.0225 227.744 30.9129 228.059 31.6633H222.181V31.6582ZM234.452 35.0046C231.21 35.0046 228.574 32.3684 228.574 29.1271C228.574 25.8858 231.205 23.2496 234.452 23.2496C237.698 23.2496 240.329 25.8858 240.329 29.1271C240.329 32.3684 237.693 35.0046 234.452 35.0046Z" fill="#B3B2B2"/>
<path d="M223.542 22.4544H228.609C228.884 22.4544 229.109 22.2292 229.109 21.9541C229.109 21.679 228.884 21.4539 228.609 21.4539H223.542C223.267 21.4539 223.042 21.6789 223.042 21.9541C223.042 22.2292 223.267 22.4544 223.542 22.4544ZM234.806 25.4355C234.711 25.3355 234.581 25.2755 234.441 25.2755C234.301 25.2755 234.171 25.3355 234.076 25.4355L231.145 28.5818C230.955 28.782 230.97 29.102 231.17 29.2872C231.37 29.4772 231.695 29.4622 231.885 29.2623L233.956 27.0463V32.5085C233.956 32.7837 234.181 33.0087 234.456 33.0087C234.731 33.0087 234.957 32.7837 234.957 32.5085V27.0463L237.012 29.2623C237.112 29.3672 237.242 29.4223 237.378 29.4223C237.497 29.4223 237.618 29.3772 237.718 29.2872C237.918 29.0971 237.933 28.782 237.743 28.5818L234.806 25.4355Z" fill="#B3B2B2"/>
</g>
<defs>
<clipPath id="clip0_3_4258">
<rect width="24" height="24" fill="white" transform="translate(219.5 12)"/>
</clipPath>
</defs>
</svg>
