<svg width="97" height="96" viewBox="0 0 97 96" fill="none" xmlns="http://www.w3.org/2000/svg">
<g clip-path="url(#clip0_3_5949)">
<path d="M42.1 65.6C42.1 78.8336 52.8664 89.6 66.1 89.6C79.3336 89.6 90.1 78.8336 90.1 65.6C90.1 52.3664 79.3336 41.6 66.1 41.6C52.8664 41.6 42.1 52.3664 42.1 65.6ZM77.4136 54.2864C77.5618 54.4355 77.7381 54.5538 77.9322 54.6346C78.1263 54.7153 78.3345 54.7569 78.5448 54.7569C78.755 54.7569 78.9632 54.7153 79.1573 54.6346C79.3515 54.5538 79.5277 54.4355 79.676 54.2864L81.8776 52.0848C84.7523 55.4284 86.4835 59.6032 86.8184 64H83.7C83.2756 64 82.8687 64.1686 82.5686 64.4686C82.2685 64.7687 82.1 65.1757 82.1 65.6C82.1 66.0244 82.2685 66.4313 82.5686 66.7314C82.8687 67.0314 83.2756 67.2 83.7 67.2H86.8184C86.4838 71.5969 84.7526 75.7718 81.8776 79.1152L79.676 76.9136C79.5274 76.7651 79.3511 76.6472 79.157 76.5668C78.9629 76.4864 78.7549 76.445 78.5448 76.445C78.3347 76.445 78.1267 76.4864 77.9326 76.5668C77.7385 76.6472 77.5621 76.7651 77.4136 76.9136C77.265 77.0622 77.1472 77.2385 77.0668 77.4326C76.9864 77.6267 76.945 77.8347 76.945 78.0448C76.945 78.2549 76.9864 78.4629 77.0668 78.657C77.1472 78.8511 77.265 79.0275 77.4136 79.176L79.6152 81.3776C76.2715 84.2524 72.0968 85.9835 67.7 86.3184V83.2C67.7 82.7757 67.5314 82.3687 67.2313 82.0686C66.9313 81.7686 66.5243 81.6 66.1 81.6C65.6756 81.6 65.2687 81.7686 64.9686 82.0686C64.6685 82.3687 64.5 82.7757 64.5 83.2V86.3184C60.1031 85.9838 55.9282 84.2527 52.5848 81.3776L54.7864 79.176C54.9349 79.0275 55.0528 78.8511 55.1332 78.657C55.2136 78.4629 55.2549 78.2549 55.2549 78.0448C55.2549 77.8347 55.2136 77.6267 55.1332 77.4326C55.0528 77.2385 54.9349 77.0622 54.7864 76.9136C54.6378 76.7651 54.4615 76.6472 54.2674 76.5668C54.0733 76.4864 53.8653 76.445 53.6552 76.445C53.4451 76.445 53.2371 76.4864 53.043 76.5668C52.8489 76.6472 52.6725 76.7651 52.524 76.9136L50.3224 79.1152C47.4476 75.7716 45.7165 71.5968 45.3816 67.2H48.5C48.9243 67.2 49.3313 67.0314 49.6313 66.7314C49.9314 66.4313 50.1 66.0244 50.1 65.6C50.1 65.1757 49.9314 64.7687 49.6313 64.4686C49.3313 64.1686 48.9243 64 48.5 64H45.3816C45.7162 59.6031 47.4473 55.4283 50.3224 52.0848L52.524 54.2864C52.6722 54.4355 52.8485 54.5538 53.0426 54.6346C53.2367 54.7153 53.4449 54.7569 53.6552 54.7569C53.8654 54.7569 54.0736 54.7153 54.2677 54.6346C54.4619 54.5538 54.6381 54.4355 54.7864 54.2864C54.9351 54.1379 55.0531 53.9616 55.1336 53.7675C55.2141 53.5734 55.2555 53.3653 55.2555 53.1552C55.2555 52.9451 55.2141 52.737 55.1336 52.5429C55.0531 52.3488 54.9351 52.1725 54.7864 52.024L52.5848 49.8224C55.9284 46.9476 60.1032 45.2165 64.5 44.8816V48C64.5 48.4244 64.6685 48.8313 64.9686 49.1314C65.2687 49.4314 65.6756 49.6 66.1 49.6C66.5243 49.6 66.9313 49.4314 67.2313 49.1314C67.5314 48.8313 67.7 48.4244 67.7 48V44.8816C72.0969 45.2162 76.2717 46.9473 79.6152 49.8224L77.4136 52.024C77.2649 52.1725 77.1469 52.3488 77.0664 52.5429C76.9859 52.737 76.9445 52.9451 76.9445 53.1552C76.9445 53.3653 76.9859 53.5734 77.0664 53.7675C77.1469 53.9616 77.2649 54.1379 77.4136 54.2864Z" fill="#D9D9D9"/>
<path d="M6.9 91.2H49.7704C54.4936 94.224 60.0872 96 66.1 96C82.8632 96 96.5 82.3632 96.5 65.6C96.5 49.3776 83.7176 36.1216 67.7 35.2816V14.4C67.7 10.8704 64.8296 8 61.3 8H46.4552C45.9 7.048 44.8792 6.4 43.7 6.4H41.9384C41.196 2.7536 37.964 0 34.1 0C30.236 0 27.004 2.7536 26.2616 6.4H24.5C23.3208 6.4 22.3 7.048 21.7448 8H6.9C3.3704 8 0.5 10.8704 0.5 14.4V84.8C0.5 88.3296 3.3704 91.2 6.9 91.2ZM93.3 65.6C93.3 80.5984 81.0984 92.8 66.1 92.8C51.1016 92.8 38.9 80.5984 38.9 65.6C38.9 50.6016 51.1016 38.4 66.1 38.4C81.0984 38.4 93.3 50.6016 93.3 65.6ZM64.5 14.4V35.2816C63.4168 35.3392 62.3496 35.4496 61.3 35.6176V17.6C61.3 15.8352 59.8648 14.4 58.1 14.4H46.9V11.2H61.3C63.0648 11.2 64.5 12.6352 64.5 14.4ZM24.5 9.6H27.7C28.1243 9.6 28.5313 9.43143 28.8314 9.13137C29.1314 8.83131 29.3 8.42435 29.3 8C29.3 5.3536 31.4536 3.2 34.1 3.2C36.7464 3.2 38.9 5.3536 38.9 8C38.9 8.42435 39.0686 8.83131 39.3686 9.13137C39.6687 9.43143 40.0757 9.6 40.5 9.6L43.7 9.5968V16H24.5V9.6ZM43.7 19.2C44.8792 19.2 45.9 18.552 46.4552 17.6H58.1V36.304C45.212 39.8288 35.7 51.6096 35.7 65.6C35.7 71.4736 37.4024 76.9456 40.3 81.6H10.1V17.6H21.7448C22.3 18.552 23.3208 19.2 24.5 19.2H43.7ZM3.7 14.4C3.7 12.6352 5.1352 11.2 6.9 11.2H21.3V14.4H10.1C8.3352 14.4 6.9 15.8352 6.9 17.6V81.6C6.9 83.3648 8.3352 84.8 10.1 84.8H42.556C43.4987 85.9392 44.5228 87.0087 45.62 88H6.9C5.1352 88 3.7 86.5648 3.7 84.8V14.4Z" fill="#D9D9D9"/>
<path d="M71.5304 52.9296C71.3375 52.8464 71.13 52.8022 70.92 52.7994C70.7099 52.7966 70.5014 52.8354 70.3063 52.9134C70.1113 52.9915 69.9335 53.1073 69.7834 53.2542C69.6332 53.4012 69.5135 53.5763 69.4312 53.7696L64.6312 64.9696C64.4707 65.3446 64.4594 65.7668 64.5998 66.1499C64.7401 66.533 65.0215 66.8479 65.3864 67.0304L68.5864 68.6304C68.9662 68.8203 69.4059 68.8515 69.8087 68.7173C70.2115 68.583 70.5445 68.2942 70.7344 67.9144C70.9243 67.5346 70.9556 67.0949 70.8213 66.6921C70.687 66.2893 70.3982 65.9563 70.0184 65.7664L68.1688 64.8416L72.3736 55.0272C72.4564 54.8342 72.5003 54.6268 72.5028 54.4169C72.5054 54.2069 72.4665 53.9985 72.3885 53.8036C72.3105 53.6086 72.1949 53.431 72.0482 53.2807C71.9015 53.1305 71.7267 53.0106 71.5336 52.928L71.5304 52.9296ZM34.1 6.39999C33.6757 6.39999 33.2687 6.56856 32.9687 6.86862C32.6686 7.16868 32.5 7.57565 32.5 7.99999V8.04959C32.5 8.93439 33.2152 9.62399 34.1 9.62399C34.9848 9.62399 35.7 8.88319 35.7 7.99839C35.7 7.11359 34.9848 6.39999 34.1 6.39999ZM14.9 32C14.9 32.4243 15.0686 32.8313 15.3687 33.1314C15.6687 33.4314 16.0757 33.6 16.5 33.6H38.9C39.3244 33.6 39.7313 33.4314 40.0314 33.1314C40.3315 32.8313 40.5 32.4243 40.5 32C40.5 31.5756 40.3315 31.1687 40.0314 30.8686C39.7313 30.5686 39.3244 30.4 38.9 30.4H16.5C16.0757 30.4 15.6687 30.5686 15.3687 30.8686C15.0686 31.1687 14.9 31.5756 14.9 32ZM47.3688 34.7312C47.6688 35.0313 48.0757 35.1999 48.5 35.2C48.5368 35.2 48.5752 35.2 48.6136 35.1952C48.8422 35.179 49.0646 35.1139 49.2659 35.0043C49.4671 34.8947 49.6424 34.7432 49.78 34.56L54.58 28.16C54.706 27.992 54.7976 27.8009 54.8497 27.5974C54.9018 27.394 54.9133 27.1824 54.8836 26.9745C54.8539 26.7667 54.7835 26.5667 54.6765 26.386C54.5695 26.2054 54.428 26.0476 54.26 25.9216C54.092 25.7956 53.9009 25.704 53.6975 25.6519C53.4941 25.5998 53.2824 25.5883 53.0746 25.618C52.8667 25.6477 52.6667 25.7181 52.4861 25.8251C52.3054 25.9321 52.1476 26.0736 52.0216 26.2416L48.3272 31.1648L48.0312 30.8688C47.7312 30.5688 47.3243 30.4002 46.9 30.4002C46.4757 30.4002 46.0688 30.5688 45.7688 30.8688C45.4688 31.1688 45.3003 31.5757 45.3003 32C45.3003 32.4243 45.4688 32.8312 45.7688 33.1312L47.3688 34.7312ZM34.1 48H16.5C16.0757 48 15.6687 48.1686 15.3687 48.4686C15.0686 48.7687 14.9 49.1756 14.9 49.6C14.9 50.0243 15.0686 50.4313 15.3687 50.7314C15.6687 51.0314 16.0757 51.2 16.5 51.2H34.1C34.5244 51.2 34.9313 51.0314 35.2314 50.7314C35.5315 50.4313 35.7 50.0243 35.7 49.6C35.7 49.1756 35.5315 48.7687 35.2314 48.4686C34.9313 48.1686 34.5244 48 34.1 48ZM29.3 65.6H16.5C16.0757 65.6 15.6687 65.7686 15.3687 66.0686C15.0686 66.3687 14.9 66.7756 14.9 67.2C14.9 67.6243 15.0686 68.0313 15.3687 68.3314C15.6687 68.6314 16.0757 68.8 16.5 68.8H29.3C29.7244 68.8 30.1313 68.6314 30.4314 68.3314C30.7315 68.0313 30.9 67.6243 30.9 67.2C30.9 66.7756 30.7315 66.3687 30.4314 66.0686C30.1313 65.7686 29.7244 65.6 29.3 65.6Z" fill="#D9D9D9"/>
</g>
<defs>
<clipPath id="clip0_3_5949">
<rect width="96" height="96" fill="white" transform="translate(0.5)"/>
</clipPath>
</defs>
</svg>
